<svg width="120" height="153" viewBox="0 0 120 153" fill="none" xmlns="http://www.w3.org/2000/svg">
<path d="M14 47H106V139H14V47Z" fill="#D1D2D6"/>
<path d="M38.1911 123.882L45.2315 119.622C46.5898 122.03 47.8254 124.067 50.7891 124.067C53.63 124.067 55.4211 122.956 55.4211 118.633V89.2373H64.0667V118.756C64.0667 127.71 58.8178 131.786 51.1597 131.786C44.2435 131.786 40.2288 128.204 38.1909 123.882" fill="#F5F6F7"/>
<path d="M68.7603 122.955L75.7999 118.879C77.653 121.905 80.0615 124.128 84.3224 124.128C87.9047 124.128 90.1891 122.337 90.1891 119.867C90.1891 116.902 87.8425 115.852 83.89 114.124L81.7292 113.197C75.4914 110.542 71.3536 107.207 71.3536 100.167C71.3536 93.6824 76.294 88.7417 84.0139 88.7417C89.5102 88.7417 93.4625 90.6563 96.303 95.6586L89.5715 99.9813C88.0893 97.326 86.4841 96.2764 84.014 96.2764C81.482 96.2764 79.8762 97.882 79.8762 99.9813C79.8762 102.575 81.482 103.625 85.1869 105.231L87.3482 106.157C94.6972 109.307 98.8351 112.518 98.8351 119.743C98.8351 127.525 92.7213 131.786 84.5079 131.786C76.4796 131.786 71.292 127.957 68.7604 122.955" fill="#F5F6F7"/>
</svg>
