<svg width="120" height="153" viewBox="0 0 120 153" fill="none" xmlns="http://www.w3.org/2000/svg">
<path d="M101.829 119.802L61.6847 142.513V124.828L86.6979 111.065L101.829 119.802ZM104.579 117.315V69.8284L89.8952 78.3152V108.842L104.579 117.315ZM18.0137 119.802L58.1584 142.513V124.828L33.1321 111.065L18.0137 119.802ZM15.2637 117.315V69.8284L29.9479 78.3152V108.842L15.2637 117.315ZM16.9874 66.7494L58.1584 43.46V60.5521L31.7768 75.0652L31.5663 75.1836L16.9874 66.7494ZM102.856 66.7494L61.6847 43.46V60.5521L88.0663 75.0521L88.2768 75.1705L102.856 66.7494Z" fill="#D1D2D6"/>
<path d="M58.1574 120.802L33.4731 107.223V80.3414L58.1574 94.5914V120.802ZM61.6837 120.802L86.3679 107.236V80.3414L61.6837 94.5914V120.802ZM35.1442 77.2361L59.9205 63.6177L84.6968 77.2361L59.9205 91.5387L35.1442 77.2361Z" fill="#D1D2D6"/>
</svg>
