<svg width="120" height="153" fill="none" xmlns="http://www.w3.org/2000/svg"><path d="M101.829 119.802l-40.144 22.711v-17.685l25.013-13.763 15.131 8.737zm2.75-2.487V69.828l-14.684 8.487v30.527l14.684 8.473zm-86.565 2.487l40.144 22.711v-17.685l-25.026-13.763-15.118 8.737zm-2.75-2.487V69.828l14.684 8.487v30.527l-14.684 8.473zm1.723-50.566L58.158 43.46v17.092L31.777 75.065l-.21.119-14.58-8.435zm85.869 0L61.685 43.46v17.092l26.381 14.5.21.118 14.58-8.42zm-44.699 54.053l-24.684-13.579V80.341l24.684 14.25v26.211zm3.527 0l24.684-13.566V80.341l-24.684 14.25v26.211zm-26.54-43.566L59.92 63.618l24.777 13.618L59.92 91.54 35.144 77.236z" fill="#D1D2D6"/></svg>